<?xml version="1.0" encoding="UTF-8"?>
<svg width="40" height="32" version="1.1" viewBox="0 0 10.583 8.4667" xmlns="http://www.w3.org/2000/svg">
 <path d="m6.6534-5.3058e-5 -4.763e-4 4.9212e-4c-1.4655 0.0067944-1.4994 3.2678-1.6398 3.738-0.01651-0.062811-0.031538-0.12951-0.043814-0.20571-0.0422-0.26207-0.13382-1.9593-1.3165-1.9593h-0.0064c-0.76178 0-1.1121 0.64708-1.4071 1.5188-0.55295 1.634-1.026 3.9983-1.6684 4.2193-0.021841 0.00749-0.043706 0.012303-0.065949 0.014764-0.022905 0.00241-0.04604 0.00217-0.069391-0.00101-0.022846-0.00302-0.045608-0.00908-0.068902-0.0177h-4.9212e-4s-0.1222 0.31202-0.36615 0.93558c0.045394 0.016937 0.089502 0.031568 0.13239 0.044294h4.9212e-4c0.042716 0.012647 0.08429 0.023548 0.12451 0.031988h4.9212e-4c0.0402 0.00841 0.07893 0.014975 0.11664 0.019182 0.038266 0.00431 0.075024 0.0064 0.11073 0.0064 0.073799-5.29e-5 0.14543-0.0073 0.21458-0.020664 0.14902-0.028572 0.28659-0.088552 0.41587-0.17176 0.041692-0.026961 0.082742-0.056064 0.12255-0.088105 0.70206-0.56218 1.1177-1.881 1.4715-3.0921 0.080829-0.27667 0.15875-0.5507 0.23476-0.81549 0.21632-0.72614 0.40989-1.3194 0.56252-1.5163 0.036089-0.04654 0.091624-0.11808 0.1565-0.19243h5.027e-4c0.4256 0.13277 0.14187 1.9783 0.87306 2.4908 0.097418 0.091359 0.23958 0.14666 0.44098 0.14666 0.48029 0 0.73839-0.45119 0.90359-1.0492 0.00254-0.00908 0.00487-0.018441 0.00738-0.027569 0.01815-0.067362 0.035136-0.13621 0.05117-0.20672 0.00294-0.012726 0.00648-0.02458 0.00937-0.037385-4.763e-4 0.00103-0.00101 0.00193-0.00148 0.00294 0.080508-0.36295 0.13726-0.75911 0.19293-1.1334 0.10819-0.72757 0.2886-1.3407 0.42669-1.5532 0.041618-0.064055 0.088238-0.1282 0.13732-0.19046 0.21071 0.11066 0.26392 0.90433 0.37795 1.5763 0.039687 0.23392 0.08747 0.46788 0.15798 0.67867 0.014049 0.041962 0.028786 0.083105 0.044793 0.12306v4.763e-4c0.14441 0.3621 0.37383 0.63417 0.7776 0.6841 0.044846 0.00566 0.091968 0.00886 0.14123 0.00886 0.031115 0 0.062203-0.00243 0.092524-0.0059 5.291e-4 -7.93e-5 9.789e-4 -4.498e-4 0.00148-5.027e-4 0.37996-0.044529 0.70251-0.35253 0.99612-0.71508-0.00754 0.00558-0.014208 0.00934-0.021643 0.014763 0.47095-0.57951 0.86801-1.3042 1.3101-1.3042v-0.99511c-1.1647-0.025847-2.0478 2.0214-2.3663 2.0887-0.024262-0.0608-0.047095-0.12435-0.070378-0.18899-0.13218-0.36708-0.10504-2.0679-0.87946-2.6545-0.013573-0.010382-0.027252-0.020844-0.041327-0.030514-0.010795-0.007353-0.021881-0.014237-0.032993-0.021164-0.021378-0.013467-0.043391-0.026096-0.065933-0.037896-0.00529-0.002744-0.010398-0.005715-0.015742-0.008366-0.031988-0.015967-0.065113-0.030371-0.099429-0.042817-6.35e-4 -2.249e-4 -0.00135-2.6723e-4 -0.00196-4.9212e-4 -0.035056-0.012607-0.071701-0.023302-0.10927-0.03199-9.525e-4 -2.196e-4 -0.0019843-2.7252e-4 -0.0029368-4.9212e-4 -0.034448-0.0078501-0.070167-0.013848-0.10681-0.018208-0.0053975-6.5087e-4 -0.010768-0.001397-0.016245-0.0019685-0.038073-0.0039422-0.076622-0.0068897-0.11713-0.0068897-0.00135-5.2916e-6 -0.00259 0-0.00394 0z" fill="#fff"/>
</svg>
